<svg width="149" height="180" viewBox="0 0 149 180" fill="none" xmlns="http://www.w3.org/2000/svg">
<path d="M5.67924 40.6476C11.4673 21.5712 31.1874 4.99816 52.4261 1.36082C56.975 0.58124 73.1047 0.0910618 96.2568 0.0272126C131.979 -0.0716507 133.023 -0.0160649 138.243 2.24337C144.393 4.90547 148.99 11.38 149 17.3942C149.015 27.1106 139.551 39.9171 128.883 42.6605C125.81 43.4515 114.186 43.8943 96.072 43.9118H62.0002C62.0002 43.9118 37.5002 43.9118 37.5002 66.5V74.5C37.5002 74.5 20.5005 77.5 4.02285 96L4.02261 64.7641C3.88945 51.4464 4.3249 45.1109 5.67924 40.6476Z" fill="url(#paint0_linear_615_299)"/>
<path d="M35.9188 124.5C35.9188 115 48.4197 111 48.4197 111L36.9182 113.5C-9.08179 125 0.918263 157 0.918263 157C6.41826 178 19.4188 178.5 19.4188 178.5C8.4188 153 35.9188 140 35.9188 140V124.5Z" fill="url(#paint1_linear_615_299)"/>
<path fill-rule="evenodd" clip-rule="evenodd" d="M39.1928 138.34C33.5217 139.202 25.8881 141.788 24.6868 143.253C24.0253 144.061 23.0605 144.722 22.5437 144.722C21.4462 144.722 17.0322 149.839 14.4421 154.116C13.4503 155.753 12.1603 159.508 11.5746 162.461C10.6328 167.213 10.7555 168.341 12.6442 172.295C13.8684 174.856 15.9417 177.322 17.5071 178.077C19.5195 179.049 29.1427 179.514 54.1588 179.849C92.9775 180.37 100.816 179.699 106.949 175.333C118.195 167.323 121.545 152.114 113.791 144.258C107.76 138.146 107.867 138.163 73.6146 138.019C56.3289 137.946 40.8391 138.091 39.1928 138.34Z" fill="#FEFEFE"/>
<path fill-rule="evenodd" clip-rule="evenodd" d="M39.1928 138.34C33.5217 139.202 25.8881 141.788 24.6868 143.253C24.0253 144.061 23.0605 144.722 22.5437 144.722C21.4462 144.722 17.0322 149.839 14.4421 154.116C13.4503 155.753 12.1603 159.508 11.5746 162.461C10.6328 167.213 10.7555 168.341 12.6442 172.295C13.8684 174.856 15.9417 177.322 17.5071 178.077C19.5195 179.049 29.1427 179.514 54.1588 179.849C92.9775 180.37 100.816 179.699 106.949 175.333C118.195 167.323 121.545 152.114 113.791 144.258C107.76 138.146 107.867 138.163 73.6146 138.019C56.3289 137.946 40.8391 138.091 39.1928 138.34Z" fill="#FEFEFE"/>
<path fill-rule="evenodd" clip-rule="evenodd" d="M40.3691 73.3214C22.6641 76.8534 6.22504 92.9464 1.40005 111.47C0.271048 115.804 -0.0919497 121.956 0.0190502 134.888C0.10105 144.535 0.350052 151.078 0.571052 149.428C0.972052 146.43 2.53505 142.365 5.69305 136.105C8.57804 130.386 18.209 122.103 26.345 118.344C35.858 113.949 44.832 112.989 76.753 112.954C91.853 112.937 101.543 112.507 104.105 111.739C112.998 109.075 120.887 98.3254 120.874 88.8904C120.866 83.0504 117.034 76.7634 111.907 74.1784C107.556 71.9844 106.686 71.9304 76.907 72.0264C57.607 72.0884 44.161 72.5644 40.3691 73.3214Z" fill="#FEFEFE"/>
<path fill-rule="evenodd" clip-rule="evenodd" d="M40.3691 73.3214C22.6641 76.8534 6.22504 92.9464 1.40005 111.47C0.271048 115.804 -0.0919497 121.956 0.0190502 134.888C0.10105 144.535 0.350052 151.078 0.571052 149.428C0.972052 146.43 2.53505 142.365 5.69305 136.105C8.57804 130.386 18.209 122.103 26.345 118.344C35.858 113.949 44.832 112.989 76.753 112.954C91.853 112.937 101.543 112.507 104.105 111.739C112.998 109.075 120.887 98.3254 120.874 88.8904C120.866 83.0504 117.034 76.7634 111.907 74.1784C107.556 71.9844 106.686 71.9304 76.907 72.0264C57.607 72.0884 44.161 72.5644 40.3691 73.3214Z" fill="#FEFEFE"/>
<defs>
<linearGradient id="paint0_linear_615_299" x1="76.4997" y1="0" x2="76.4997" y2="96" gradientUnits="userSpaceOnUse">
<stop offset="0.45225" stop-color="#FFFEFF"/>
<stop offset="1" stop-color="#AB9BF5" stop-opacity="0.79"/>
</linearGradient>
<linearGradient id="paint1_linear_615_299" x1="24.2099" y1="111" x2="24" y2="145" gradientUnits="userSpaceOnUse">
<stop stop-color="#ADABF3"/>
<stop offset="0.396822" stop-color="#9398F2"/>
<stop offset="1" stop-color="#7984F1" stop-opacity="0.75"/>
</linearGradient>
</defs>
</svg>
